<svg width="23" height="20" viewBox="0 0 23 20" fill="none" xmlns="http://www.w3.org/2000/svg">
<path d="M8.59404 16.6958C8.88463 16.6958 9.12021 16.4996 9.12021 16.2575C9.12021 16.0155 8.88463 15.8193 8.59404 15.8193C8.30344 15.8193 8.06787 16.0155 8.06787 16.2575C8.06787 16.4996 8.30344 16.6958 8.59404 16.6958Z" fill="#22262A" stroke="#22262A" stroke-width="2" stroke-miterlimit="10" stroke-linecap="round" stroke-linejoin="round"/>
<path d="M15.9604 16.6958C16.251 16.6958 16.4865 16.4996 16.4865 16.2575C16.4865 16.0155 16.251 15.8193 15.9604 15.8193C15.6698 15.8193 15.4342 16.0155 15.4342 16.2575C15.4342 16.4996 15.6698 16.6958 15.9604 16.6958Z" fill="#22262A" stroke="#22262A" stroke-width="2" stroke-miterlimit="10" stroke-linecap="round" stroke-linejoin="round"/>
<path d="M2.80627 2.67083H4.91094L7.01561 13.1896H17.539L19.6436 5.30052H5.96328" stroke="#22262A" stroke-width="2" stroke-linecap="round" stroke-linejoin="round"/>
</svg>
